<svg xmlns="http://www.w3.org/2000/svg" viewBox="0 0 640 520" fill="none"><defs>
  <linearGradient id="gold" x1="0" y1="0" x2="1" y2="1"><stop offset="0" stop-color="#f6ecd0"/><stop offset=".5" stop-color="#d9b45a"/><stop offset="1" stop-color="#7a5a1a"/></linearGradient>
  <linearGradient id="goldv" x1="0" y1="0" x2="0" y2="1"><stop offset="0" stop-color="#f6ecd0"/><stop offset="1" stop-color="#d9b45a" stop-opacity=".25"/></linearGradient>
  <radialGradient id="halo" cx=".5" cy=".5" r=".5"><stop offset="0" stop-color="#d9b45a" stop-opacity=".55"/><stop offset="1" stop-color="#d9b45a" stop-opacity="0"/></radialGradient>
  <filter id="glow" x="-30%" y="-30%" width="160%" height="160%"><feGaussianBlur stdDeviation="6" result="b"/><feMerge><feMergeNode in="b"/><feMergeNode in="SourceGraphic"/></feMerge></filter>
  <filter id="soft"><feGaussianBlur stdDeviation="14"/></filter>
</defs>
<g><circle cx="290" cy="291" r="24" fill="#f6ecd0" opacity="0.13"/><circle cx="547" cy="99" r="22" fill="#f6ecd0" opacity="0.16"/><circle cx="508" cy="49" r="11" fill="#d9b45a" opacity="0.14"/><circle cx="570" cy="330" r="17" fill="#f6ecd0" opacity="0.21"/><circle cx="419" cy="320" r="7" fill="#d9b45a" opacity="0.19"/><circle cx="40" cy="19" r="23" fill="#d9b45a" opacity="0.18"/><circle cx="209" cy="307" r="8" fill="#d9b45a" opacity="0.16"/><circle cx="320" cy="344" r="14" fill="#f6ecd0" opacity="0.12"/><circle cx="353" cy="484" r="6" fill="#f6ecd0" opacity="0.10"/><circle cx="147" cy="150" r="6" fill="#d9b45a" opacity="0.12"/><circle cx="542" cy="201" r="25" fill="#d9b45a" opacity="0.09"/><circle cx="593" cy="27" r="12" fill="#f6ecd0" opacity="0.12"/><circle cx="362" cy="103" r="19" fill="#f6ecd0" opacity="0.06"/><circle cx="213" cy="501" r="21" fill="#d9b45a" opacity="0.07"/><circle cx="452" cy="6" r="14" fill="#f6ecd0" opacity="0.08"/><circle cx="358" cy="233" r="8" fill="#d9b45a" opacity="0.12"/><circle cx="246" cy="205" r="26" fill="#d9b45a" opacity="0.10"/><circle cx="621" cy="418" r="11" fill="#d9b45a" opacity="0.09"/><circle cx="252" cy="444" r="18" fill="#d9b45a" opacity="0.06"/><circle cx="94" cy="230" r="4" fill="#f6ecd0" opacity="0.19"/><circle cx="247" cy="39" r="9" fill="#d9b45a" opacity="0.05"/><circle cx="236" cy="324" r="7" fill="#f6ecd0" opacity="0.19"/><circle cx="87" cy="201" r="18" fill="#f6ecd0" opacity="0.20"/><circle cx="523" cy="130" r="8" fill="#d9b45a" opacity="0.17"/><circle cx="248" cy="251" r="6" fill="#d9b45a" opacity="0.07"/><circle cx="25" cy="501" r="9" fill="#f6ecd0" opacity="0.09"/></g>
<circle cx="320" cy="270" r="250" fill="url(#halo)"/>
<polyline points="60,430 130,400 190,415 250,350 310,372 370,300 440,318 510,235 580,170 580,500 60,500" fill="url(#goldv)" opacity=".16"/>
<rect x="124" y="366" width="12" height="46" rx="2" fill="#d9b45a" opacity=".35"/><line x1="130" y1="350" x2="130" y2="424" stroke="#d9b45a" stroke-width="1.5" opacity=".35"/><rect x="184" y="389" width="12" height="36" rx="2" fill="#d9b45a" opacity=".35"/><line x1="190" y1="365" x2="190" y2="439" stroke="#d9b45a" stroke-width="1.5" opacity=".35"/><rect x="244" y="332" width="12" height="46" rx="2" fill="#d9b45a" opacity=".35"/><line x1="250" y1="300" x2="250" y2="374" stroke="#d9b45a" stroke-width="1.5" opacity=".35"/><rect x="304" y="338" width="12" height="36" rx="2" fill="#d9b45a" opacity=".35"/><line x1="310" y1="322" x2="310" y2="396" stroke="#d9b45a" stroke-width="1.5" opacity=".35"/><rect x="364" y="274" width="12" height="46" rx="2" fill="#d9b45a" opacity=".35"/><line x1="370" y1="250" x2="370" y2="324" stroke="#d9b45a" stroke-width="1.5" opacity=".35"/><rect x="434" y="300" width="12" height="36" rx="2" fill="#d9b45a" opacity=".35"/><line x1="440" y1="268" x2="440" y2="342" stroke="#d9b45a" stroke-width="1.5" opacity=".35"/><rect x="504" y="201" width="12" height="46" rx="2" fill="#d9b45a" opacity=".35"/><line x1="510" y1="185" x2="510" y2="259" stroke="#d9b45a" stroke-width="1.5" opacity=".35"/>
<polyline points="60,430 130,400 190,415 250,350 310,372 370,300 440,318 510,235 580,170" stroke="url(#gold)" stroke-width="4" stroke-linejoin="round" stroke-linecap="round" filter="url(#glow)"/>
<circle cx="130" cy="400" r="5" fill="#f6ecd0"/><circle cx="250" cy="350" r="5" fill="#f6ecd0"/><circle cx="370" cy="300" r="5" fill="#f6ecd0"/><circle cx="510" cy="235" r="5" fill="#f6ecd0"/>
<circle cx="320" cy="270" r="212" stroke="url(#gold)" stroke-width="2.5"/>
<circle cx="320" cy="270" r="186" stroke="#d9b45a" stroke-width="1" opacity=".5"/>
<circle cx="320" cy="270" r="120" stroke="#d9b45a" stroke-width="1" stroke-dasharray="3 7" opacity=".6"/>
<line x1="516.0" y1="270.0" x2="530.0" y2="270.0" stroke="#d9b45a" stroke-width="2" opacity="0.9"/><line x1="515.3" y1="287.1" x2="522.2" y2="287.7" stroke="#d9b45a" stroke-width="1" opacity="0.45"/><line x1="513.0" y1="304.0" x2="519.9" y2="305.3" stroke="#d9b45a" stroke-width="1" opacity="0.45"/><line x1="509.3" y1="320.7" x2="516.1" y2="322.5" stroke="#d9b45a" stroke-width="1" opacity="0.45"/><line x1="504.2" y1="337.0" x2="510.8" y2="339.4" stroke="#d9b45a" stroke-width="1" opacity="0.45"/><line x1="497.6" y1="352.8" x2="504.0" y2="355.8" stroke="#d9b45a" stroke-width="1" opacity="0.45"/><line x1="489.7" y1="368.0" x2="501.9" y2="375.0" stroke="#d9b45a" stroke-width="2" opacity="0.9"/><line x1="480.6" y1="382.4" x2="486.3" y2="386.4" stroke="#d9b45a" stroke-width="1" opacity="0.45"/><line x1="470.1" y1="396.0" x2="475.5" y2="400.5" stroke="#d9b45a" stroke-width="1" opacity="0.45"/><line x1="458.6" y1="408.6" x2="463.5" y2="413.5" stroke="#d9b45a" stroke-width="1" opacity="0.45"/><line x1="446.0" y1="420.1" x2="450.5" y2="425.5" stroke="#d9b45a" stroke-width="1" opacity="0.45"/><line x1="432.4" y1="430.6" x2="436.4" y2="436.3" stroke="#d9b45a" stroke-width="1" opacity="0.45"/><line x1="418.0" y1="439.7" x2="425.0" y2="451.9" stroke="#d9b45a" stroke-width="2" opacity="0.9"/><line x1="402.8" y1="447.6" x2="405.8" y2="454.0" stroke="#d9b45a" stroke-width="1" opacity="0.45"/><line x1="387.0" y1="454.2" x2="389.4" y2="460.8" stroke="#d9b45a" stroke-width="1" opacity="0.45"/><line x1="370.7" y1="459.3" x2="372.5" y2="466.1" stroke="#d9b45a" stroke-width="1" opacity="0.45"/><line x1="354.0" y1="463.0" x2="355.3" y2="469.9" stroke="#d9b45a" stroke-width="1" opacity="0.45"/><line x1="337.1" y1="465.3" x2="337.7" y2="472.2" stroke="#d9b45a" stroke-width="1" opacity="0.45"/><line x1="320.0" y1="466.0" x2="320.0" y2="480.0" stroke="#d9b45a" stroke-width="2" opacity="0.9"/><line x1="302.9" y1="465.3" x2="302.3" y2="472.2" stroke="#d9b45a" stroke-width="1" opacity="0.45"/><line x1="286.0" y1="463.0" x2="284.7" y2="469.9" stroke="#d9b45a" stroke-width="1" opacity="0.45"/><line x1="269.3" y1="459.3" x2="267.5" y2="466.1" stroke="#d9b45a" stroke-width="1" opacity="0.45"/><line x1="253.0" y1="454.2" x2="250.6" y2="460.8" stroke="#d9b45a" stroke-width="1" opacity="0.45"/><line x1="237.2" y1="447.6" x2="234.2" y2="454.0" stroke="#d9b45a" stroke-width="1" opacity="0.45"/><line x1="222.0" y1="439.7" x2="215.0" y2="451.9" stroke="#d9b45a" stroke-width="2" opacity="0.9"/><line x1="207.6" y1="430.6" x2="203.6" y2="436.3" stroke="#d9b45a" stroke-width="1" opacity="0.45"/><line x1="194.0" y1="420.1" x2="189.5" y2="425.5" stroke="#d9b45a" stroke-width="1" opacity="0.45"/><line x1="181.4" y1="408.6" x2="176.5" y2="413.5" stroke="#d9b45a" stroke-width="1" opacity="0.45"/><line x1="169.9" y1="396.0" x2="164.5" y2="400.5" stroke="#d9b45a" stroke-width="1" opacity="0.45"/><line x1="159.4" y1="382.4" x2="153.7" y2="386.4" stroke="#d9b45a" stroke-width="1" opacity="0.45"/><line x1="150.3" y1="368.0" x2="138.1" y2="375.0" stroke="#d9b45a" stroke-width="2" opacity="0.9"/><line x1="142.4" y1="352.8" x2="136.0" y2="355.8" stroke="#d9b45a" stroke-width="1" opacity="0.45"/><line x1="135.8" y1="337.0" x2="129.2" y2="339.4" stroke="#d9b45a" stroke-width="1" opacity="0.45"/><line x1="130.7" y1="320.7" x2="123.9" y2="322.5" stroke="#d9b45a" stroke-width="1" opacity="0.45"/><line x1="127.0" y1="304.0" x2="120.1" y2="305.3" stroke="#d9b45a" stroke-width="1" opacity="0.45"/><line x1="124.7" y1="287.1" x2="117.8" y2="287.7" stroke="#d9b45a" stroke-width="1" opacity="0.45"/><line x1="124.0" y1="270.0" x2="110.0" y2="270.0" stroke="#d9b45a" stroke-width="2" opacity="0.9"/><line x1="124.7" y1="252.9" x2="117.8" y2="252.3" stroke="#d9b45a" stroke-width="1" opacity="0.45"/><line x1="127.0" y1="236.0" x2="120.1" y2="234.7" stroke="#d9b45a" stroke-width="1" opacity="0.45"/><line x1="130.7" y1="219.3" x2="123.9" y2="217.5" stroke="#d9b45a" stroke-width="1" opacity="0.45"/><line x1="135.8" y1="203.0" x2="129.2" y2="200.6" stroke="#d9b45a" stroke-width="1" opacity="0.45"/><line x1="142.4" y1="187.2" x2="136.0" y2="184.2" stroke="#d9b45a" stroke-width="1" opacity="0.45"/><line x1="150.3" y1="172.0" x2="138.1" y2="165.0" stroke="#d9b45a" stroke-width="2" opacity="0.9"/><line x1="159.4" y1="157.6" x2="153.7" y2="153.6" stroke="#d9b45a" stroke-width="1" opacity="0.45"/><line x1="169.9" y1="144.0" x2="164.5" y2="139.5" stroke="#d9b45a" stroke-width="1" opacity="0.45"/><line x1="181.4" y1="131.4" x2="176.5" y2="126.5" stroke="#d9b45a" stroke-width="1" opacity="0.45"/><line x1="194.0" y1="119.9" x2="189.5" y2="114.5" stroke="#d9b45a" stroke-width="1" opacity="0.45"/><line x1="207.6" y1="109.4" x2="203.6" y2="103.7" stroke="#d9b45a" stroke-width="1" opacity="0.45"/><line x1="222.0" y1="100.3" x2="215.0" y2="88.1" stroke="#d9b45a" stroke-width="2" opacity="0.9"/><line x1="237.2" y1="92.4" x2="234.2" y2="86.0" stroke="#d9b45a" stroke-width="1" opacity="0.45"/><line x1="253.0" y1="85.8" x2="250.6" y2="79.2" stroke="#d9b45a" stroke-width="1" opacity="0.45"/><line x1="269.3" y1="80.7" x2="267.5" y2="73.9" stroke="#d9b45a" stroke-width="1" opacity="0.45"/><line x1="286.0" y1="77.0" x2="284.7" y2="70.1" stroke="#d9b45a" stroke-width="1" opacity="0.45"/><line x1="302.9" y1="74.7" x2="302.3" y2="67.8" stroke="#d9b45a" stroke-width="1" opacity="0.45"/><line x1="320.0" y1="74.0" x2="320.0" y2="60.0" stroke="#d9b45a" stroke-width="2" opacity="0.9"/><line x1="337.1" y1="74.7" x2="337.7" y2="67.8" stroke="#d9b45a" stroke-width="1" opacity="0.45"/><line x1="354.0" y1="77.0" x2="355.3" y2="70.1" stroke="#d9b45a" stroke-width="1" opacity="0.45"/><line x1="370.7" y1="80.7" x2="372.5" y2="73.9" stroke="#d9b45a" stroke-width="1" opacity="0.45"/><line x1="387.0" y1="85.8" x2="389.4" y2="79.2" stroke="#d9b45a" stroke-width="1" opacity="0.45"/><line x1="402.8" y1="92.4" x2="405.8" y2="86.0" stroke="#d9b45a" stroke-width="1" opacity="0.45"/><line x1="418.0" y1="100.3" x2="425.0" y2="88.1" stroke="#d9b45a" stroke-width="2" opacity="0.9"/><line x1="432.4" y1="109.4" x2="436.4" y2="103.7" stroke="#d9b45a" stroke-width="1" opacity="0.45"/><line x1="446.0" y1="119.9" x2="450.5" y2="114.5" stroke="#d9b45a" stroke-width="1" opacity="0.45"/><line x1="458.6" y1="131.4" x2="463.5" y2="126.5" stroke="#d9b45a" stroke-width="1" opacity="0.45"/><line x1="470.1" y1="144.0" x2="475.5" y2="139.5" stroke="#d9b45a" stroke-width="1" opacity="0.45"/><line x1="480.6" y1="157.6" x2="486.3" y2="153.6" stroke="#d9b45a" stroke-width="1" opacity="0.45"/><line x1="489.7" y1="172.0" x2="501.9" y2="165.0" stroke="#d9b45a" stroke-width="2" opacity="0.9"/><line x1="497.6" y1="187.2" x2="504.0" y2="184.2" stroke="#d9b45a" stroke-width="1" opacity="0.45"/><line x1="504.2" y1="203.0" x2="510.8" y2="200.6" stroke="#d9b45a" stroke-width="1" opacity="0.45"/><line x1="509.3" y1="219.3" x2="516.1" y2="217.5" stroke="#d9b45a" stroke-width="1" opacity="0.45"/><line x1="513.0" y1="236.0" x2="519.9" y2="234.7" stroke="#d9b45a" stroke-width="1" opacity="0.45"/><line x1="515.3" y1="252.9" x2="522.2" y2="252.3" stroke="#d9b45a" stroke-width="1" opacity="0.45"/>
<polygon points="320.0,105.0 300.0,270.0 320,270 340.0,270.0" fill="url(#gold)" opacity="0.95"/><polygon points="485.0,270.0 320.0,250.0 320,270 320.0,290.0" fill="url(#gold)" opacity="0.95"/><polygon points="320.0,435.0 340.0,270.0 320,270 300.0,270.0" fill="url(#gold)" opacity="0.95"/><polygon points="155.0,270.0 320.0,290.0 320,270 320.0,250.0" fill="url(#gold)" opacity="0.95"/><polygon points="394.2,195.8 310.1,260.1 320,270 329.9,279.9" fill="url(#gold)" opacity="0.55"/><polygon points="394.2,344.2 329.9,260.1 320,270 310.1,279.9" fill="url(#gold)" opacity="0.55"/><polygon points="245.8,344.2 329.9,279.9 320,270 310.1,260.1" fill="url(#gold)" opacity="0.55"/><polygon points="245.8,195.8 310.1,279.9 320,270 329.9,260.1" fill="url(#gold)" opacity="0.55"/>
<circle cx="320" cy="270" r="16" fill="#050a14" stroke="url(#gold)" stroke-width="3"/>
<circle cx="320" cy="270" r="5" fill="#f6ecd0"/>
<ellipse cx="540" cy="470" rx="46" ry="12" fill="url(#gold)" stroke="#7a5a1a" stroke-width="1"/><path d="M494 470 v10 a46 12 0 0 0 92 0 v-10" fill="#9a7424" opacity=".8"/><ellipse cx="540" cy="457" rx="46" ry="12" fill="url(#gold)" stroke="#7a5a1a" stroke-width="1"/><path d="M494 457 v10 a46 12 0 0 0 92 0 v-10" fill="#9a7424" opacity=".8"/><ellipse cx="540" cy="444" rx="46" ry="12" fill="url(#gold)" stroke="#7a5a1a" stroke-width="1"/><path d="M494 444 v10 a46 12 0 0 0 92 0 v-10" fill="#9a7424" opacity=".8"/><ellipse cx="540" cy="431" rx="46" ry="12" fill="url(#gold)" stroke="#7a5a1a" stroke-width="1"/><path d="M494 431 v10 a46 12 0 0 0 92 0 v-10" fill="#9a7424" opacity=".8"/><ellipse cx="540" cy="418" rx="46" ry="12" fill="url(#gold)" stroke="#7a5a1a" stroke-width="1"/><path d="M494 418 v10 a46 12 0 0 0 92 0 v-10" fill="#9a7424" opacity=".8"/><ellipse cx="540" cy="405" rx="46" ry="12" fill="url(#gold)" stroke="#7a5a1a" stroke-width="1"/><path d="M494 405 v10 a46 12 0 0 0 92 0 v-10" fill="#9a7424" opacity=".8"/>
<path d="M120 102 Q122.16 117.84 138 120 Q122.16 122.16 120 138 Q117.84 122.16 102 120 Q117.84 117.84 120 102Z" fill="url(#gold)" opacity="1"/><path d="M520 68 Q521.44 78.56 532 80 Q521.44 81.44 520 92 Q518.56 81.44 508 80 Q518.56 78.56 520 68Z" fill="url(#gold)" opacity="0.8"/><path d="M580 321 Q581.08 328.92 589 330 Q581.08 331.08 580 339 Q578.92 331.08 571 330 Q578.92 328.92 580 321Z" fill="url(#gold)" opacity="0.7"/>
</svg>